<?xml version="1.0" encoding="utf-8"?>
<!-- Generator: Adobe Illustrator 27.2.0, SVG Export Plug-In . SVG Version: 6.00 Build 0)  -->
<svg version="1.1" id="Слой_1" xmlns="http://www.w3.org/2000/svg" xmlns:xlink="http://www.w3.org/1999/xlink" x="0px" y="0px"
	 viewBox="0 0 64.3 65.8" style="enable-background:new 0 0 64.3 65.8;" xml:space="preserve">
<style type="text/css">
	.st0{clip-path:url(#SVGID_00000097464985145480622670000009149684763989478585_);fill:#FBBC05;}
	.st1{clip-path:url(#SVGID_00000054987533129561950520000007358365634147187366_);fill:#EA4335;}
	.st2{clip-path:url(#SVGID_00000181046348930318423050000014600837873923822256_);fill:#34A853;}
	.st3{clip-path:url(#SVGID_00000091707357271199168580000003412325639074887606_);fill:#4285F4;}
</style>
<g>
	<g>
		<defs>
			<path id="SVGID_1_" d="M63.6,26.9H32.9v12.7h17.6c-1.6,8.1-8.5,12.7-17.6,12.7c-10.8,0-19.4-8.7-19.4-19.4s8.7-19.4,19.4-19.4
				c4.6,0,8.8,1.6,12.1,4.3l9.6-9.6C48.8,3.1,41.3,0,32.9,0C14.7,0,0,14.7,0,32.9s14.7,32.9,32.9,32.9c16.5,0,31.4-12,31.4-32.9
				C64.3,31,64,28.9,63.6,26.9z"/>
		</defs>
		<clipPath id="SVGID_00000091694501982635909110000000659880847133138353_">
			<use xlink:href="#SVGID_1_"  style="overflow:visible;"/>
		</clipPath>
		<path style="clip-path:url(#SVGID_00000091694501982635909110000000659880847133138353_);fill:#FBBC05;" d="M-3,52.3V13.5
			l25.4,19.4L-3,52.3z"/>
	</g>
	<g>
		<defs>
			<path id="SVGID_00000137842925542284252400000016172406891988738206_" d="M63.6,26.9H32.9v12.7h17.6c-1.6,8.1-8.5,12.7-17.6,12.7
				c-10.8,0-19.4-8.7-19.4-19.4s8.7-19.4,19.4-19.4c4.6,0,8.8,1.6,12.1,4.3l9.6-9.6C48.8,3.1,41.3,0,32.9,0C14.7,0,0,14.7,0,32.9
				s14.7,32.9,32.9,32.9c16.5,0,31.4-12,31.4-32.9C64.3,31,64,28.9,63.6,26.9z"/>
		</defs>
		<clipPath id="SVGID_00000181082217887535524180000002937540422429732271_">
			<use xlink:href="#SVGID_00000137842925542284252400000016172406891988738206_"  style="overflow:visible;"/>
		</clipPath>
		<path style="clip-path:url(#SVGID_00000181082217887535524180000002937540422429732271_);fill:#EA4335;" d="M-3,13.5l25.4,19.4
			l10.5-9.1l35.9-5.8V-3H-3V13.5z"/>
	</g>
	<g>
		<g>
			<defs>
				<path id="SVGID_00000017506069514229176380000007782768305327179912_" d="M63.6,26.9H32.9v12.7h17.6
					c-1.6,8.1-8.5,12.7-17.6,12.7c-10.8,0-19.4-8.7-19.4-19.4s8.7-19.4,19.4-19.4c4.6,0,8.8,1.6,12.1,4.3l9.6-9.6
					C48.8,3.1,41.3,0,32.9,0C14.7,0,0,14.7,0,32.9s14.7,32.9,32.9,32.9c16.5,0,31.4-12,31.4-32.9C64.3,31,64,28.9,63.6,26.9z"/>
			</defs>
			<clipPath id="SVGID_00000047038548589763461710000006941720531019856316_">
				<use xlink:href="#SVGID_00000017506069514229176380000007782768305327179912_"  style="overflow:visible;"/>
			</clipPath>
			<path style="clip-path:url(#SVGID_00000047038548589763461710000006941720531019856316_);fill:#34A853;" d="M-3,52.3l44.9-34.4
				l11.8,1.5L68.8-3v71.8H-3V52.3z"/>
		</g>
	</g>
	<g>
		<g>
			<defs>
				<path id="SVGID_00000034068333864352233460000000393747209817551252_" d="M63.6,26.9H32.9v12.7h17.6
					c-1.6,8.1-8.5,12.7-17.6,12.7c-10.8,0-19.4-8.7-19.4-19.4s8.7-19.4,19.4-19.4c4.6,0,8.8,1.6,12.1,4.3l9.6-9.6
					C48.8,3.1,41.3,0,32.9,0C14.7,0,0,14.7,0,32.9s14.7,32.9,32.9,32.9c16.5,0,31.4-12,31.4-32.9C64.3,31,64,28.9,63.6,26.9z"/>
			</defs>
			<clipPath id="SVGID_00000179605311953805503440000013741530404816863154_">
				<use xlink:href="#SVGID_00000034068333864352233460000000393747209817551252_"  style="overflow:visible;"/>
			</clipPath>
			<path style="clip-path:url(#SVGID_00000179605311953805503440000013741530404816863154_);fill:#4285F4;" d="M68.8,68.8L22.4,32.9
				l-6-4.5l52.3-15V68.8z"/>
		</g>
	</g>
</g>
</svg>
